<?xml version="1.0" ?><svg fill="none" height="24" viewBox="0 0 24 24" width="24" xmlns="http://www.w3.org/2000/svg"><path d="M7.55915 18.5C8.89879 19.5612 10.1678 20 12 20C16.026 20 19.3482 16.9463 19.8338 13H21.0115C21.7997 13 22.2698 12.1099 21.8326 11.4453L19.7291 8.24808C19.3385 7.65434 18.4775 7.65434 18.0869 8.24808L15.9834 11.4453C15.5462 12.1099 16.0163 13 16.8045 13H17.8393C17.3695 15.8377 14.9339 18 12 18C10.9211 18 9.90957 17.7076 9.03843 17.1967L7.55915 18.5Z" fill="black"/><path d="M14.9615 6.80326C14.0904 6.2924 13.0789 6 12 6C9.06607 6 6.63054 8.16229 6.16072 11H7.19546C7.98366 11 8.45379 11.8901 8.01658 12.5547L5.91311 15.7519C5.52249 16.3457 4.66149 16.3457 4.27087 15.7519L2.1674 12.5547C1.73019 11.8901 2.20032 11 2.98852 11H4.16621C4.65184 7.05369 7.97399 4 12 4C13.8322 4 15.1012 4.43881 16.4409 5.5L14.9615 6.80326Z" fill="black"/></svg>